<svg xmlns="http://www.w3.org/2000/svg" xmlns:xlink="http://www.w3.org/1999/xlink" width="500" zoomAndPan="magnify" viewBox="0 0 375 374.999991" height="500" preserveAspectRatio="xMidYMid meet" version="1.0"><defs><clipPath id="b92dee732f"><path d="M 50.253906 68.882812 L 324.277344 68.882812 L 324.277344 342.902344 L 50.253906 342.902344 Z M 50.253906 68.882812 " clip-rule="nonzero"/></clipPath><clipPath id="ec1792b92b"><path d="M 118 37.5 L 194 37.5 L 194 74 L 118 74 Z M 118 37.5 " clip-rule="nonzero"/></clipPath><clipPath id="b1da3a17f9"><path d="M 94.5625 283 L 195 283 L 195 343.507812 L 94.5625 343.507812 Z M 94.5625 283 " clip-rule="nonzero"/></clipPath><clipPath id="de0a50c4ea"><path d="M 194 283 L 297.148438 283 L 297.148438 343.507812 L 194 343.507812 Z M 194 283 " clip-rule="nonzero"/></clipPath></defs><g clip-path="url(#b92dee732f)"><path fill="#8c52ff" d="M 324.277344 205.890625 C 324.277344 208.132812 324.222656 210.375 324.109375 212.613281 C 324 214.855469 323.835938 217.089844 323.617188 219.320312 C 323.394531 221.554688 323.121094 223.777344 322.792969 225.996094 C 322.464844 228.214844 322.082031 230.421875 321.644531 232.621094 C 321.207031 234.820312 320.714844 237.007812 320.167969 239.183594 C 319.625 241.359375 319.027344 243.519531 318.375 245.664062 C 317.726562 247.808594 317.023438 249.9375 316.265625 252.050781 C 315.511719 254.160156 314.703125 256.253906 313.847656 258.324219 C 312.988281 260.394531 312.078125 262.445312 311.121094 264.472656 C 310.164062 266.5 309.15625 268.5 308.097656 270.480469 C 307.039062 272.457031 305.9375 274.40625 304.78125 276.328125 C 303.628906 278.253906 302.429688 280.148438 301.183594 282.011719 C 299.941406 283.875 298.648438 285.707031 297.3125 287.507812 C 295.976562 289.308594 294.597656 291.078125 293.175781 292.8125 C 291.753906 294.542969 290.289062 296.242188 288.785156 297.902344 C 287.277344 299.5625 285.730469 301.1875 284.144531 302.773438 C 282.5625 304.359375 280.9375 305.90625 279.277344 307.410156 C 277.613281 308.917969 275.917969 310.378906 274.183594 311.804688 C 272.449219 313.226562 270.683594 314.605469 268.882812 315.941406 C 267.082031 317.277344 265.25 318.566406 263.382812 319.8125 C 261.519531 321.058594 259.625 322.257812 257.703125 323.410156 C 255.777344 324.5625 253.828125 325.667969 251.851562 326.726562 C 249.875 327.78125 247.871094 328.789062 245.84375 329.75 C 243.816406 330.707031 241.769531 331.617188 239.695312 332.472656 C 237.625 333.332031 235.535156 334.136719 233.421875 334.894531 C 231.3125 335.648438 229.183594 336.351562 227.035156 337.003906 C 224.890625 337.652344 222.730469 338.253906 220.554688 338.796875 C 218.378906 339.339844 216.195312 339.832031 213.996094 340.269531 C 211.796875 340.707031 209.585938 341.089844 207.367188 341.421875 C 205.152344 341.75 202.925781 342.023438 200.695312 342.242188 C 198.460938 342.464844 196.226562 342.628906 193.988281 342.738281 C 191.75 342.847656 189.507812 342.902344 187.265625 342.902344 C 185.023438 342.902344 182.78125 342.847656 180.542969 342.738281 C 178.300781 342.628906 176.066406 342.464844 173.835938 342.242188 C 171.605469 342.023438 169.378906 341.75 167.160156 341.421875 C 164.941406 341.089844 162.734375 340.707031 160.535156 340.269531 C 158.335938 339.832031 156.148438 339.339844 153.972656 338.796875 C 151.800781 338.253906 149.636719 337.652344 147.492188 337.003906 C 145.347656 336.351562 143.21875 335.648438 141.105469 334.894531 C 138.996094 334.136719 136.90625 333.332031 134.832031 332.472656 C 132.761719 331.617188 130.710938 330.707031 128.683594 329.75 C 126.65625 328.789062 124.65625 327.78125 122.679688 326.726562 C 120.699219 325.667969 118.75 324.5625 116.828125 323.410156 C 114.902344 322.257812 113.011719 321.058594 111.144531 319.8125 C 109.28125 318.566406 107.449219 317.277344 105.648438 315.941406 C 103.847656 314.605469 102.078125 313.226562 100.347656 311.804688 C 98.613281 310.378906 96.914062 308.917969 95.253906 307.410156 C 93.59375 305.90625 91.96875 304.359375 90.382812 302.773438 C 88.796875 301.1875 87.253906 299.5625 85.746094 297.902344 C 84.242188 296.242188 82.777344 294.542969 81.355469 292.8125 C 79.929688 291.078125 78.550781 289.308594 77.214844 287.507812 C 75.882812 285.707031 74.589844 283.875 73.34375 282.011719 C 72.097656 280.148438 70.898438 278.253906 69.746094 276.328125 C 68.59375 274.40625 67.488281 272.457031 66.433594 270.480469 C 65.375 268.5 64.367188 266.5 63.410156 264.472656 C 62.449219 262.445312 61.542969 260.394531 60.683594 258.324219 C 59.824219 256.253906 59.019531 254.160156 58.261719 252.050781 C 57.507812 249.9375 56.804688 247.808594 56.152344 245.664062 C 55.503906 243.519531 54.90625 241.359375 54.359375 239.183594 C 53.816406 237.007812 53.324219 234.820312 52.886719 232.621094 C 52.449219 230.421875 52.066406 228.214844 51.738281 225.996094 C 51.40625 223.777344 51.132812 221.554688 50.914062 219.320312 C 50.695312 217.089844 50.527344 214.855469 50.417969 212.613281 C 50.308594 210.375 50.253906 208.132812 50.253906 205.890625 C 50.253906 203.648438 50.308594 201.410156 50.417969 199.167969 C 50.527344 196.929688 50.695312 194.695312 50.914062 192.460938 C 51.132812 190.230469 51.40625 188.007812 51.738281 185.789062 C 52.066406 183.570312 52.449219 181.363281 52.886719 179.164062 C 53.324219 176.964844 53.816406 174.777344 54.359375 172.601562 C 54.90625 170.425781 55.503906 168.265625 56.152344 166.121094 C 56.804688 163.972656 57.507812 161.847656 58.261719 159.734375 C 59.019531 157.625 59.824219 155.53125 60.683594 153.460938 C 61.542969 151.390625 62.449219 149.339844 63.410156 147.3125 C 64.367188 145.285156 65.375 143.28125 66.433594 141.304688 C 67.488281 139.328125 68.59375 137.378906 69.746094 135.453125 C 70.898438 133.53125 72.097656 131.636719 73.34375 129.773438 C 74.589844 127.910156 75.882812 126.074219 77.214844 124.273438 C 78.550781 122.472656 79.929688 120.707031 81.355469 118.972656 C 82.777344 117.238281 84.242188 115.542969 85.746094 113.882812 C 87.253906 112.21875 88.796875 110.597656 90.382812 109.011719 C 91.96875 107.425781 93.59375 105.878906 95.253906 104.375 C 96.914062 102.867188 98.613281 101.402344 100.347656 99.980469 C 102.078125 98.558594 103.847656 97.179688 105.648438 95.84375 C 107.449219 94.507812 109.28125 93.21875 111.144531 91.972656 C 113.011719 90.726562 114.902344 89.527344 116.828125 88.375 C 118.75 87.222656 120.699219 86.117188 122.679688 85.058594 C 124.65625 84.003906 126.65625 82.996094 128.683594 82.035156 C 130.710938 81.078125 132.761719 80.167969 134.832031 79.3125 C 136.90625 78.453125 138.996094 77.644531 141.105469 76.890625 C 143.21875 76.136719 145.347656 75.433594 147.492188 74.78125 C 149.636719 74.128906 151.800781 73.53125 153.972656 72.988281 C 156.148438 72.441406 158.335938 71.953125 160.535156 71.515625 C 162.734375 71.078125 164.941406 70.691406 167.160156 70.363281 C 169.378906 70.035156 171.605469 69.761719 173.835938 69.539062 C 176.066406 69.320312 178.300781 69.15625 180.542969 69.046875 C 182.78125 68.9375 185.023438 68.882812 187.265625 68.882812 C 189.507812 68.882812 191.75 68.9375 193.988281 69.046875 C 196.226562 69.15625 198.460938 69.320312 200.695312 69.539062 C 202.925781 69.761719 205.152344 70.035156 207.367188 70.363281 C 209.585938 70.691406 211.796875 71.078125 213.996094 71.515625 C 216.195312 71.953125 218.378906 72.441406 220.554688 72.988281 C 222.730469 73.53125 224.890625 74.128906 227.035156 74.78125 C 229.183594 75.433594 231.3125 76.136719 233.421875 76.890625 C 235.535156 77.644531 237.625 78.453125 239.695312 79.3125 C 241.769531 80.167969 243.816406 81.078125 245.84375 82.035156 C 247.871094 82.996094 249.875 84.003906 251.851562 85.058594 C 253.828125 86.117188 255.777344 87.222656 257.703125 88.375 C 259.625 89.527344 261.519531 90.726562 263.382812 91.972656 C 265.25 93.21875 267.082031 94.507812 268.882812 95.84375 C 270.683594 97.179688 272.449219 98.558594 274.183594 99.980469 C 275.917969 101.402344 277.613281 102.867188 279.277344 104.375 C 280.9375 105.878906 282.5625 107.425781 284.144531 109.011719 C 285.730469 110.597656 287.277344 112.21875 288.785156 113.882812 C 290.289062 115.542969 291.753906 117.238281 293.175781 118.972656 C 294.597656 120.707031 295.976562 122.472656 297.3125 124.273438 C 298.648438 126.074219 299.941406 127.910156 301.183594 129.773438 C 302.429688 131.636719 303.628906 133.53125 304.78125 135.453125 C 305.9375 137.378906 307.039062 139.328125 308.097656 141.304688 C 309.15625 143.28125 310.164062 145.285156 311.121094 147.3125 C 312.078125 149.339844 312.988281 151.390625 313.847656 153.460938 C 314.703125 155.53125 315.511719 157.625 316.265625 159.734375 C 317.023438 161.847656 317.726562 163.972656 318.375 166.121094 C 319.027344 168.265625 319.625 170.425781 320.167969 172.601562 C 320.714844 174.777344 321.207031 176.964844 321.644531 179.164062 C 322.082031 181.363281 322.464844 183.570312 322.792969 185.789062 C 323.121094 188.007812 323.394531 190.230469 323.617188 192.460938 C 323.835938 194.695312 324 196.929688 324.109375 199.167969 C 324.222656 201.410156 324.277344 203.648438 324.277344 205.890625 Z M 324.277344 205.890625 " fill-opacity="1" fill-rule="nonzero"/></g><path fill="#fdbda0" d="M 269.664062 147.589844 C 269.664062 186.773438 245.933594 219.695312 213.828125 228.992188 C 207.910156 230.710938 201.707031 231.621094 195.308594 231.621094 C 195.1875 231.621094 195.0625 231.621094 194.941406 231.621094 C 189.039062 231.585938 183.300781 230.78125 177.800781 229.277344 C 149.910156 221.667969 128.152344 196.292969 122.433594 164.339844 C 121.464844 158.925781 120.957031 153.328125 120.957031 147.589844 C 120.957031 145.445312 121.027344 143.320312 121.167969 141.214844 C 124.039062 97.917969 155.941406 63.773438 194.941406 63.558594 C 195.0625 63.558594 195.1875 63.558594 195.308594 63.558594 C 236.375 63.558594 269.664062 101.179688 269.664062 147.589844 " fill-opacity="1" fill-rule="nonzero"/><path fill="#653134" d="M 235.617188 137.421875 C 235.617188 139.789062 233.703125 141.710938 231.339844 141.710938 C 228.980469 141.710938 227.066406 139.789062 227.066406 137.421875 C 227.066406 135.054688 228.980469 133.136719 231.339844 133.136719 C 233.703125 133.136719 235.617188 135.054688 235.617188 137.421875 " fill-opacity="1" fill-rule="nonzero"/><path fill="#653134" d="M 222.199219 135.367188 C 222.199219 135.367188 231.097656 129.921875 244.03125 134.726562 L 222.199219 135.367188 " fill-opacity="1" fill-rule="nonzero"/><path fill="#653134" d="M 218.210938 121.320312 C 218.210938 121.320312 218.300781 128.867188 219.414062 129.875 C 220.527344 130.878906 229.847656 121.195312 235.617188 122.578125 C 241.390625 123.960938 249.917969 129.246094 249.917969 129.246094 C 249.917969 129.246094 246.671875 122.074219 241.757812 119.683594 C 236.847656 117.292969 227.945312 114.023438 218.210938 121.320312 " fill-opacity="1" fill-rule="nonzero"/><path fill="#fdbda0" d="M 228.871094 284.214844 L 156.371094 283.117188 C 175.019531 274.167969 177.476562 238.984375 177.800781 229.277344 C 177.851562 227.691406 177.847656 226.789062 177.847656 226.789062 L 213.855469 226.789062 C 213.835938 227.527344 213.828125 228.261719 213.828125 228.992188 C 213.851562 259.023438 228.871094 284.214844 228.871094 284.214844 " fill-opacity="1" fill-rule="nonzero"/><path fill="#fdbda0" d="M 122.433594 164.339844 C 121.339844 165.113281 119.703125 165.597656 117.25 165.4375 C 108.71875 164.878906 102.972656 133.832031 109.09375 131.972656 C 114.359375 130.371094 119.765625 138.832031 121.167969 141.214844 C 121.394531 141.601562 121.515625 141.828125 121.515625 141.828125 L 124.480469 158.746094 C 124.480469 158.746094 125.140625 162.425781 122.433594 164.339844 " fill-opacity="1" fill-rule="nonzero"/><path fill="#efac92" d="M 194.941406 63.558594 L 194.941406 283.117188 L 156.371094 283.117188 C 175.019531 274.167969 177.476562 238.984375 177.800781 229.277344 C 149.910156 221.667969 128.152344 196.292969 122.433594 164.339844 C 121.339844 165.113281 119.703125 165.597656 117.25 165.4375 C 108.71875 164.878906 102.972656 133.832031 109.09375 131.972656 C 114.359375 130.371094 119.765625 138.832031 121.167969 141.214844 C 124.039062 97.917969 155.941406 63.773438 194.941406 63.558594 " fill-opacity="1" fill-rule="nonzero"/><path fill="#653134" d="M 195.914062 133.863281 C 196.152344 135.074219 196.277344 136.3125 196.332031 137.554688 C 196.382812 138.796875 196.359375 140.046875 196.25 141.296875 C 196.03125 143.789062 195.484375 146.300781 194.421875 148.65625 C 194.15625 149.242188 193.855469 149.820312 193.527344 150.382812 C 193.195312 150.941406 192.820312 151.480469 192.417969 152 C 192.011719 152.515625 191.574219 153.015625 191.097656 153.476562 C 190.621094 153.9375 190.109375 154.363281 189.574219 154.753906 C 189.035156 155.148438 188.46875 155.5 187.878906 155.804688 C 187.292969 156.113281 186.6875 156.390625 186.066406 156.617188 C 185.914062 156.675781 185.757812 156.726562 185.597656 156.777344 L 185.144531 156.925781 L 184.726562 157.058594 L 184.316406 157.203125 C 183.769531 157.394531 183.234375 157.609375 182.722656 157.847656 C 182.207031 158.085938 181.714844 158.351562 181.257812 158.648438 C 180.800781 158.941406 180.386719 159.273438 180.03125 159.632812 C 179.984375 159.675781 179.945312 159.722656 179.902344 159.769531 C 179.863281 159.816406 179.820312 159.863281 179.777344 159.910156 C 179.707031 160.003906 179.625 160.09375 179.558594 160.195312 C 179.484375 160.289062 179.429688 160.390625 179.367188 160.488281 C 179.3125 160.589844 179.253906 160.6875 179.214844 160.792969 C 179.125 160.996094 179.054688 161.203125 179.015625 161.414062 C 178.976562 161.625 178.960938 161.835938 178.972656 162.054688 C 179.003906 162.925781 179.511719 163.839844 180.234375 164.597656 C 180.601562 164.976562 181.023438 165.316406 181.480469 165.621094 C 181.707031 165.769531 181.941406 165.914062 182.1875 166.042969 C 182.429688 166.171875 182.679688 166.289062 182.9375 166.398438 C 183.964844 166.832031 185.078125 167.078125 186.203125 167.121094 C 186.34375 167.125 186.484375 167.125 186.625 167.125 C 186.765625 167.121094 186.902344 167.121094 187.054688 167.105469 L 187.945312 167.042969 C 188.246094 167.03125 188.539062 166.984375 188.835938 166.949219 C 189.128906 166.914062 189.429688 166.882812 189.71875 166.824219 C 190.894531 166.636719 192.054688 166.34375 193.148438 165.871094 L 193.554688 165.6875 L 193.65625 165.640625 L 193.757812 165.585938 L 193.953125 165.480469 C 194.222656 165.347656 194.46875 165.179688 194.722656 165.015625 C 194.839844 164.925781 194.964844 164.839844 195.082031 164.75 C 195.195312 164.652344 195.316406 164.558594 195.425781 164.453125 C 195.535156 164.347656 195.644531 164.242188 195.742188 164.125 C 195.796875 164.070312 195.84375 164.011719 195.890625 163.949219 C 195.9375 163.890625 195.980469 163.828125 196.023438 163.765625 C 195.914062 164.054688 195.75 164.324219 195.5625 164.574219 C 195.472656 164.703125 195.367188 164.820312 195.269531 164.945312 C 195.164062 165.058594 195.058594 165.171875 194.949219 165.289062 C 194.71875 165.503906 194.488281 165.722656 194.234375 165.910156 C 193.988281 166.113281 193.71875 166.277344 193.453125 166.453125 C 192.382812 167.132812 191.191406 167.601562 189.976562 167.953125 C 189.675781 168.054688 189.367188 168.117188 189.0625 168.191406 C 188.753906 168.265625 188.445312 168.347656 188.136719 168.394531 L 187.207031 168.5625 C 187.054688 168.589844 186.886719 168.609375 186.722656 168.628906 C 186.558594 168.644531 186.390625 168.660156 186.226562 168.671875 C 185.5625 168.710938 184.894531 168.683594 184.238281 168.589844 C 183.90625 168.550781 183.582031 168.480469 183.253906 168.410156 C 182.929688 168.332031 182.609375 168.242188 182.292969 168.132812 C 181.023438 167.703125 179.8125 167.042969 178.789062 166.082031 C 178.277344 165.605469 177.808594 165.054688 177.445312 164.402344 C 177.265625 164.078125 177.105469 163.734375 176.984375 163.371094 C 176.867188 163.003906 176.785156 162.617188 176.75 162.222656 C 176.714844 161.828125 176.726562 161.425781 176.789062 161.027344 C 176.851562 160.636719 176.96875 160.253906 177.117188 159.890625 C 177.191406 159.707031 177.28125 159.539062 177.367188 159.367188 C 177.464844 159.203125 177.558594 159.035156 177.664062 158.882812 C 177.769531 158.722656 177.882812 158.578125 177.996094 158.429688 C 178.054688 158.359375 178.117188 158.292969 178.175781 158.222656 C 178.234375 158.152344 178.296875 158.085938 178.359375 158.019531 C 178.859375 157.5 179.410156 157.0625 179.976562 156.6875 C 180.546875 156.3125 181.132812 155.988281 181.730469 155.710938 C 182.328125 155.4375 182.933594 155.203125 183.546875 154.988281 L 184.003906 154.835938 L 184.464844 154.691406 L 184.882812 154.558594 C 185.019531 154.515625 185.152344 154.476562 185.285156 154.425781 C 186.351562 154.058594 187.367188 153.558594 188.296875 152.925781 C 190.164062 151.675781 191.667969 149.890625 192.769531 147.835938 C 193.882812 145.785156 194.617188 143.488281 195.113281 141.128906 C 195.363281 139.945312 195.546875 138.746094 195.679688 137.53125 C 195.746094 136.925781 195.800781 136.316406 195.839844 135.707031 C 195.882812 135.09375 195.90625 134.480469 195.914062 133.863281 " fill-opacity="1" fill-rule="nonzero"/><path fill="#653134" d="M 178.09375 196.210938 C 177.679688 196.210938 177.277344 195.988281 177.0625 195.597656 C 176.75 195.027344 176.957031 194.3125 177.527344 193.996094 C 177.941406 193.769531 187.804688 188.402344 195.617188 190.546875 C 203.574219 192.730469 207.230469 193.5 210.617188 188.832031 C 211 188.304688 211.734375 188.1875 212.261719 188.570312 C 212.785156 188.953125 212.902344 189.691406 212.519531 190.21875 C 210.4375 193.085938 207.980469 194.484375 204.78125 194.613281 C 201.945312 194.730469 198.726562 193.84375 194.996094 192.820312 C 188.105469 190.929688 178.753906 196.011719 178.660156 196.0625 C 178.480469 196.164062 178.285156 196.210938 178.09375 196.210938 " fill-opacity="1" fill-rule="nonzero"/><path fill="#e27c6c" d="M 135.605469 127.039062 C 135.511719 127.039062 135.417969 127.015625 135.335938 126.960938 C 135.09375 126.8125 135.023438 126.496094 135.167969 126.257812 C 135.269531 126.097656 137.65625 122.265625 141.960938 118.121094 C 144.488281 115.6875 147.15625 113.65625 149.882812 112.089844 C 153.304688 110.125 156.832031 108.886719 160.367188 108.410156 C 160.648438 108.375 160.90625 108.570312 160.945312 108.851562 C 160.980469 109.132812 160.785156 109.390625 160.503906 109.429688 C 152.789062 110.464844 146.558594 115.121094 142.6875 118.839844 C 138.472656 122.894531 136.0625 126.757812 136.039062 126.796875 C 135.941406 126.953125 135.777344 127.039062 135.605469 127.039062 " fill-opacity="1" fill-rule="nonzero"/><path fill="#e27c6c" d="M 186.9375 109.433594 C 186.800781 109.433594 186.667969 109.378906 186.566406 109.273438 C 186.546875 109.253906 184.414062 107.058594 179.648438 104.847656 C 175.246094 102.804688 167.632812 100.328125 156.363281 100.136719 C 156.082031 100.132812 155.855469 99.898438 155.859375 99.617188 C 155.867188 99.335938 156.09375 99.113281 156.371094 99.113281 L 156.378906 99.113281 C 167.867188 99.304688 175.644531 101.847656 180.144531 103.949219 C 185.058594 106.238281 187.214844 108.472656 187.304688 108.566406 C 187.5 108.773438 187.492188 109.097656 187.289062 109.289062 C 187.191406 109.386719 187.0625 109.433594 186.9375 109.433594 " fill-opacity="1" fill-rule="nonzero"/><path fill="#e27c6c" d="M 194.429688 98.089844 C 194.304688 98.089844 194.179688 98.046875 194.082031 97.957031 C 193.996094 97.875 185.21875 89.832031 175.214844 87.292969 C 174.941406 87.226562 174.773438 86.945312 174.84375 86.671875 C 174.914062 86.394531 175.191406 86.230469 175.464844 86.300781 C 180.835938 87.664062 185.796875 90.554688 189.015625 92.738281 C 192.5 95.105469 194.683594 97.121094 194.773438 97.203125 C 194.984375 97.394531 194.996094 97.71875 194.804688 97.925781 C 194.703125 98.039062 194.566406 98.089844 194.429688 98.089844 " fill-opacity="1" fill-rule="nonzero"/><path fill="#e27c6c" d="M 154.882812 164.648438 C 154.703125 164.648438 154.535156 164.554688 154.4375 164.390625 C 154.371094 164.273438 152.804688 161.46875 153.890625 157.574219 C 154.976562 153.664062 158.289062 150.15625 163.726562 147.140625 C 169.328125 144.039062 172.792969 140.1875 173.753906 136 C 174.472656 132.863281 173.527344 130.59375 173.519531 130.570312 C 173.40625 130.3125 173.527344 130.011719 173.785156 129.898438 C 174.042969 129.789062 174.34375 129.90625 174.457031 130.164062 C 174.5 130.265625 175.535156 132.710938 174.765625 136.164062 C 174.316406 138.175781 173.347656 140.113281 171.882812 141.925781 C 170.070312 144.167969 167.492188 146.226562 164.222656 148.039062 C 159.042969 150.90625 155.902344 154.199219 154.878906 157.824219 C 153.902344 161.300781 155.3125 163.855469 155.324219 163.882812 C 155.464844 164.128906 155.378906 164.441406 155.132812 164.578125 C 155.054688 164.625 154.96875 164.648438 154.882812 164.648438 " fill-opacity="1" fill-rule="nonzero"/><path fill="#e27c6c" d="M 138.199219 137.933594 C 138.074219 137.933594 137.945312 137.886719 137.847656 137.792969 C 137.640625 137.59375 137.636719 137.269531 137.832031 137.066406 C 141.277344 133.480469 145.253906 133.355469 145.421875 133.351562 C 145.699219 133.34375 145.9375 133.570312 145.941406 133.851562 C 145.949219 134.132812 145.726562 134.367188 145.445312 134.375 C 145.394531 134.375 141.703125 134.515625 138.570312 137.777344 C 138.46875 137.882812 138.335938 137.933594 138.199219 137.933594 " fill-opacity="1" fill-rule="nonzero"/><path fill="#e27c6c" d="M 162.425781 199.507812 C 162.171875 199.507812 161.949219 199.316406 161.921875 199.054688 C 161.445312 194.957031 161.800781 190.925781 162.96875 187.074219 C 163.90625 183.992188 165.363281 181.023438 167.296875 178.242188 C 170.59375 173.515625 174.09375 171.011719 174.242188 170.90625 C 174.472656 170.742188 174.789062 170.800781 174.953125 171.03125 C 175.117188 171.261719 175.0625 171.582031 174.832031 171.746094 C 174.785156 171.777344 171.300781 174.277344 168.113281 178.863281 C 165.179688 183.082031 161.902344 189.988281 162.9375 198.9375 C 162.96875 199.21875 162.769531 199.472656 162.488281 199.503906 C 162.46875 199.507812 162.445312 199.507812 162.425781 199.507812 " fill-opacity="1" fill-rule="nonzero"/><path fill="#e27c6c" d="M 170.847656 207.554688 C 170.617188 207.554688 170.410156 207.398438 170.351562 207.164062 C 168.898438 201.195312 173.949219 195.761719 174.164062 195.535156 C 174.359375 195.328125 174.683594 195.320312 174.886719 195.515625 C 175.09375 195.707031 175.101562 196.035156 174.90625 196.238281 C 174.859375 196.292969 170.023438 201.5 171.347656 206.917969 C 171.414062 207.195312 171.246094 207.472656 170.96875 207.539062 C 170.929688 207.550781 170.890625 207.554688 170.847656 207.554688 " fill-opacity="1" fill-rule="nonzero"/><path fill="#653134" d="M 269.664062 140.246094 C 269.664062 140.246094 266.421875 118.214844 245.839844 107.0625 C 225.257812 95.90625 209.542969 92.5625 202.726562 86.980469 C 195.914062 81.402344 185.085938 54.625 206.503906 52.394531 C 227.917969 50.164062 253.089844 65.789062 269.664062 90.328125 C 288.472656 118.175781 277.269531 140.246094 277.269531 140.246094 L 269.664062 140.246094 " fill-opacity="1" fill-rule="nonzero"/><path fill="#fdbda0" d="M 267.8125 141.828125 C 267.8125 141.828125 274.117188 130.113281 280.234375 131.972656 C 286.351562 133.832031 280.605469 164.878906 272.074219 165.4375 C 263.546875 165.996094 264.84375 158.746094 264.84375 158.746094 L 267.8125 141.828125 " fill-opacity="1" fill-rule="nonzero"/><path fill="#653134" d="M 194.492188 61.601562 C 194.492188 61.601562 195.195312 47.949219 205.640625 40.332031 C 205.640625 40.332031 204.289062 48.585938 209.351562 51.757812 C 209.351562 51.757812 221.035156 41.917969 231.339844 43.503906 C 231.339844 43.503906 225.148438 51.441406 227.066406 55.566406 C 227.066406 55.566406 240.378906 51.757812 252.726562 56.203125 C 252.726562 56.203125 243.863281 61.917969 246.394531 65.726562 C 246.394531 65.726562 260.644531 67.949219 269.664062 74.929688 C 269.664062 74.929688 258.425781 73.660156 255.574219 76.519531 L 194.492188 61.601562 " fill-opacity="1" fill-rule="nonzero"/><path fill="#653134" d="M 263.09375 81.757812 C 263.09375 81.757812 275.167969 88.421875 282.785156 115.085938 C 282.785156 115.085938 275.523438 106.992188 269.664062 106.039062 L 263.09375 81.757812 " fill-opacity="1" fill-rule="nonzero"/><path fill="#e5e5e5" d="M 121.515625 141.828125 C 121.515625 141.828125 121.878906 115.394531 142.460938 104.238281 C 163.042969 93.082031 178.757812 89.738281 185.574219 84.160156 C 192.386719 78.578125 203.214844 51.800781 181.796875 49.570312 C 160.382812 47.339844 135.210938 62.964844 118.632812 87.503906 C 99.828125 115.351562 111.03125 137.421875 111.03125 137.421875 L 121.515625 141.828125 " fill-opacity="1" fill-rule="nonzero"/><g clip-path="url(#ec1792b92b)"><path fill="#e5e5e5" d="M 193.808594 58.777344 C 193.808594 58.777344 193.105469 45.125 182.660156 37.507812 C 182.660156 37.507812 184.011719 45.761719 178.949219 48.9375 C 178.949219 48.9375 167.265625 39.09375 156.960938 40.683594 C 156.960938 40.683594 163.152344 48.617188 161.234375 52.746094 C 161.234375 52.746094 147.921875 48.9375 135.574219 53.378906 C 135.574219 53.378906 144.4375 59.09375 141.90625 62.902344 C 141.90625 62.902344 127.65625 65.125 118.632812 72.105469 C 118.632812 72.105469 129.875 70.839844 132.722656 73.695312 L 193.808594 58.777344 " fill-opacity="1" fill-rule="nonzero"/></g><path fill="#e5e5e5" d="M 125.203125 78.933594 C 125.203125 78.933594 113.132812 85.597656 105.515625 112.261719 C 105.515625 112.261719 112.777344 104.167969 118.632812 103.214844 L 125.203125 78.933594 " fill-opacity="1" fill-rule="nonzero"/><path fill="#653134" d="M 155.574219 137.421875 C 155.574219 139.789062 157.492188 141.710938 159.851562 141.710938 C 162.214844 141.710938 164.128906 139.789062 164.128906 137.421875 C 164.128906 135.054688 162.214844 133.136719 159.851562 133.136719 C 157.492188 133.136719 155.574219 135.054688 155.574219 137.421875 " fill-opacity="1" fill-rule="nonzero"/><path fill="#f5f4fb" d="M 168.996094 135.367188 C 168.996094 135.367188 160.097656 129.921875 147.164062 134.726562 L 168.996094 135.367188 " fill-opacity="1" fill-rule="nonzero"/><path fill="#f5f4fb" d="M 172.984375 121.320312 C 172.984375 121.320312 172.890625 128.867188 171.777344 129.875 C 170.664062 130.878906 161.347656 121.195312 155.574219 122.578125 C 149.804688 123.960938 141.277344 129.246094 141.277344 129.246094 C 141.277344 129.246094 144.519531 122.074219 149.433594 119.683594 C 154.347656 117.292969 163.25 114.023438 172.984375 121.320312 " fill-opacity="1" fill-rule="nonzero"/><path fill="#efac92" d="M 122.433594 164.339844 C 121.339844 165.113281 119.703125 165.597656 117.25 165.4375 C 108.71875 164.878906 102.972656 133.832031 109.09375 131.972656 C 114.359375 130.371094 119.765625 138.832031 121.167969 141.214844 C 121.394531 141.601562 121.515625 141.828125 121.515625 141.828125 L 124.480469 158.746094 C 124.480469 158.746094 125.140625 162.425781 122.433594 164.339844 " fill-opacity="1" fill-rule="nonzero"/><path fill="#f5f4fb" d="M 194.941406 173.335938 L 194.941406 181.238281 C 194.941406 181.238281 176.941406 180.4375 169.699219 191.09375 C 169.699219 191.09375 169.101562 185.492188 173.496094 181.238281 C 177.886719 176.984375 179.320312 174.84375 179.320312 174.84375 L 185.394531 176.984375 L 189.046875 173.335938 L 194.941406 173.335938 " fill-opacity="1" fill-rule="nonzero"/><path fill="#653134" d="M 194.941406 173.335938 L 194.941406 181.238281 C 194.941406 181.238281 212.9375 180.4375 220.183594 191.09375 C 220.183594 191.09375 220.777344 185.492188 216.386719 181.238281 C 211.992188 176.984375 210.558594 174.84375 210.558594 174.84375 L 204.484375 176.984375 L 200.832031 173.335938 L 194.941406 173.335938 " fill-opacity="1" fill-rule="nonzero"/><g clip-path="url(#b1da3a17f9)"><path fill="#efac92" d="M 194.941406 343.507812 L 94.589844 343.507812 C 94.589844 310.15625 121.554688 283.117188 154.820312 283.117188 L 194.941406 283.117188 L 194.941406 343.507812 " fill-opacity="1" fill-rule="nonzero"/></g><g clip-path="url(#de0a50c4ea)"><path fill="#fdbda0" d="M 297.117188 343.507812 L 194.941406 343.507812 L 194.941406 283.117188 L 236.886719 283.117188 C 270.148438 283.117188 297.117188 310.15625 297.117188 343.507812 " fill-opacity="1" fill-rule="nonzero"/></g></svg>